#!OML:ASF H:\Dans Jumps\Project 1\Capture day 1\Session 1\subject.ASF
:FULLY-SPECIFIED
:DEGREES
344
root 0.554672 17.5942 -2.13359 6.73332 -1.00767 -1.02255
lowerback 0.985189 -0.209172 -0.973549
upperback 4.76055 -0.318021 1.48335
thorax 4.36745 -0.23003 2.06781
lowerneck -12.7037 0.237982 -1.90481
upperneck 35.3029 0.492822 1.05968
head 14.1771 0.0955889 0.842702
rclavicle 1.73937e-015 -1.13307e-014
rhumerus -19.3701 -20.7679 -82.7381
rradius 20.6477
rwrist 38.3315
rhand -19.1066 -26.1752
rfingers 7.12502
rthumb 7.20228 -56.0326
lclavicle 1.73937e-015 -1.13307e-014
lhumerus -15.4562 -3.67638 90.2307
lradius 17.8391
lwrist 2.62412
lhand -25.6285 -5.69321
lfingers 7.12502
lthumb 0.904597 24.2846
rfemur -19.0742 -2.28542 18.8719
rtibia 28.8875
rfoot -14.4752 -1.0167
rtoes 10.0466
lfemur -18.0046 7.69992 -18.506
ltibia 25.4234
lfoot -11.1128 6.00496
ltoes 2.08612
345
root 0.551633 17.5982 -2.12696 6.76255 -1.00275 -1.01422
lowerback 0.959531 -0.20829 -0.989607
upperback 4.75457 -0.316434 1.48267
thorax 4.37582 -0.229872 2.07611
lowerneck -12.6837 0.233524 -1.91598
upperneck 35.3283 0.486844 1.06579
head 14.1843 0.0921767 0.846401
rclavicle -8.69683e-015 1.37161e-014
rhumerus -19.294 -20.6734 -82.7613
rradius 20.7266
rwrist 38.2165
rhand -19.1551 -26.19
rfingers 7.12502
rthumb 7.15544 -56.049
lclavicle -8.69683e-015 1.37161e-014
lhumerus -15.4131 -3.70045 90.1933
lradius 17.8981
lwrist 2.68198
lhand -25.6729 -5.73838
lfingers 7.12502
lthumb 0.861633 24.2396
rfemur -19.0239 -2.29257 18.8732
rtibia 28.7801
rfoot -14.4531 -1.0086
rtoes 10.0758
lfemur -17.9452 7.68797 -18.5044
ltibia 25.2973
lfoot -11.0804 6.00311
ltoes 2.12359
346
root 0.548561 17.6021 -2.12058 6.79346 -1.00045 -1.01686
lowerback 0.934299 -0.205441 -0.993488
upperback 4.74509 -0.312481 1.48449
thorax 4.38009 -0.228054 2.08022
lowerneck -12.664 0.229222 -1.92199
upperneck 35.3587 0.48177 1.06601
head 14.1938 0.0890204 0.846988
rclavicle -4.82053e-015 8.54774e-015
rhumerus -19.2228 -20.594 -82.7761
rradius 20.8078
rwrist 38.1074
rhand -19.2297 -26.1767
rfingers 7.12502
rthumb 7.08345 -56.0382
lclavicle -4.82053e-015 8.54774e-015
lhumerus -15.375 -3.71962 90.1542
lradius 17.9527
lwrist 2.73991
lhand -25.7082 -5.76717
lfingers 7.12502
lthumb 0.827609 24.211
rfemur -18.9768 -2.2937 18.8871
rtibia 28.6733
rfoot -14.4189 -0.99903
rtoes 10.1444
lfemur -17.8892 7.67752 -18.4906
ltibia 25.1724
lfoot -11.0448 6.00245
ltoes 2.15272
347
root 0.545592 17.6059 -2.11428 6.82174 -1.00033 -1.01891
lowerback 0.910256 -0.200488 -0.995201
upperback 4.73459 -0.305692 1.48473
thorax 4.38247 -0.224679 2.08156
lowerneck -12.6479 0.22441 -1.92025
upperneck 35.3949 0.476282 1.05949
head 14.2069 0.0857859 0.843483
rclavicle 3.47873e-015 -1.47101e-014
rhumerus -19.1547 -20.5305 -82.7845
rradius 20.8918
rwrist 38.0023
rhand -19.3131 -26.1568
rfingers 7.12502
rthumb 7.00291 -56.021
lclavicle 3.47873e-015 -1.47101e-014
lhumerus -15.3416 -3.74205 90.1129
lradius 18.0028
lwrist 2.80051
lhand -25.7447 -5.79782
lfingers 7.12502
lthumb 0.792351 24.1805
rfemur -18.9282 -2.29357 18.8999
rtibia 28.5682
rfoot -14.3812 -0.987392
rtoes 10.2221
lfemur -17.8314 7.66622 -18.4775
ltibia 25.0494
lfoot -11.007 6.00437
ltoes 2.17347
348
root 0.542652 17.6096 -2.10813 6.84836 -1.00258 -1.0235
lowerback 0.886189 -0.194219 -0.99335
upperback 4.72329 -0.297208 1.48518
thorax 4.38392 -0.22031 2.08115
lowerneck -12.637 0.221001 -1.91404
upperneck 35.4396 0.473468 1.04823
head 14.2252 0.083603 0.837782
rclavicle -1.83876e-015 4.17448e-015
rhumerus -19.086 -20.4809 -82.788
rradius 20.9726
rwrist 37.9002
rhand -19.4049 -26.1306
rfingers 7.12502
rthumb 6.91429 -55.9977
lclavicle -1.83876e-015 4.17448e-015
lhumerus -15.3107 -3.75853 90.0695
lradius 18.0488
lwrist 2.85849
lhand -25.773 -5.80047
lfingers 7.12502
lthumb 0.764975 24.1779
rfemur -18.8795 -2.28983 18.9153
rtibia 28.4637
rfoot -14.3395 -0.975176
rtoes 10.3167
lfemur -17.7736 7.653 -18.4614
ltibia 24.9296
lfoot -10.9682 6.01186
ltoes 2.18242
349
root 0.539821 17.6131 -2.10203 6.87351 -1.00306 -1.02426
lowerback 0.860914 -0.187209 -0.993522
upperback 4.71196 -0.287639 1.48412
thorax 4.38599 -0.215452 2.08038
lowerneck -12.6343 0.217515 -1.90475
upperneck 35.4929 0.470282 1.03595
head 14.2493 0.0814874 0.831194
rclavicle 0 -1.78906e-015
rhumerus -19.0118 -20.4391 -82.7889
rradius 21.0466
rwrist 37.7894
rhand -19.489 -26.1153
rfingers 7.12502
rthumb 6.83315 -55.9851
lclavicle 0 -1.78906e-015
lhumerus -15.2803 -3.76448 90.023
lradius 18.0861
lwrist 2.90415
lhand -25.8034 -5.8099
lfingers 7.12502
lthumb 0.735598 24.1686
rfemur -18.8302 -2.28507 18.9257
rtibia 28.3612
rfoot -14.2984 -0.965783
rtoes 10.4188
lfemur -17.7155 7.63784 -18.4497
ltibia 24.8112
lfoot -10.9293 6.01935
ltoes 2.18632
350
root 0.537124 17.6165 -2.09587 6.89744 -1.00255 -1.0241
lowerback 0.830603 -0.180874 -0.99308
upperback 4.70306 -0.27897 1.48261
thorax 4.39348 -0.211071 2.07876
lowerneck -12.6351 0.215097 -1.90108
upperneck 35.55 0.468457 1.02904
head 14.2758 0.0798992 0.828047
rclavicle 6.26172e-015 1.13307e-014
rhumerus -18.9278 -20.41 -82.7876
rradius 21.1113
rwrist 37.6855
rhand -19.5534 -26.1183
rfingers 7.12502
rthumb 6.77097 -55.9901
lclavicle 6.26172e-015 1.13307e-014
lhumerus -15.2444 -3.74731 89.9728
lradius 18.1117
lwrist 2.93141
lhand -25.8298 -5.80692
lfingers 7.12502
lthumb 0.710098 24.1716
rfemur -18.7805 -2.28231 18.9345
rtibia 28.2613
rfoot -14.2672 -0.957846
rtoes 10.4975
lfemur -17.656 7.62149 -18.4392
ltibia 24.6932
lfoot -10.8925 6.02656
ltoes 2.19518
351
root 0.534481 17.6198 -2.08974 6.91784 -1.00036 -1.02272
lowerback 0.80047 -0.176109 -0.994872
upperback 4.69749 -0.272403 1.48164
thorax 4.40448 -0.207892 2.07891
lowerneck -12.6404 0.213171 -1.90349
upperneck 35.6074 0.467429 1.027
head 14.3036 0.0784818 0.828109
rclavicle 1.49089e-015 -1.31198e-014
rhumerus -18.8305 -20.3867 -82.7862
rradius 21.1608
rwrist 37.5811
rhand -19.6157 -26.1342
rfingers 7.12502
rthumb 6.71084 -56.0079
lclavicle 1.49089e-015 -1.31198e-014
lhumerus -15.2012 -3.69915 89.9182
lradius 18.1269
lwrist 2.93926
lhand -25.852 -5.80393
lfingers 7.12502
lthumb 0.688727 24.1747
rfemur -18.7286 -2.27985 18.9416
rtibia 28.1645
rfoot -14.2459 -0.95456
rtoes 10.5449
lfemur -17.5927 7.60382 -18.4295
ltibia 24.5744
lfoot -10.856 6.03287
ltoes 2.20558
